<svg id="layer" xmlns="http://www.w3.org/2000/svg" xmlns:xlink="http://www.w3.org/1999/xlink" viewBox="0 0 26.25 26"><defs><style>.cls-1{fill:none;}.cls-2{fill:#29a8e0;}.cls-3{clip-path:url(#clip-path);}.cls-4{opacity:0.7;}.cls-5{clip-path:url(#clip-path-2);}.cls-6{clip-path:url(#clip-path-3);}.cls-7{opacity:0.3;}.cls-8{clip-path:url(#clip-path-4);}.cls-9{clip-path:url(#clip-path-5);}.cls-10{opacity:0.8;}.cls-11{clip-path:url(#clip-path-6);}.cls-12{clip-path:url(#clip-path-7);}.cls-13{clip-path:url(#clip-path-8);}.cls-14{fill:#7bb547;}</style><clipPath id="clip-path"><rect class="cls-1" x="2872.94" y="234.93" width="2808.96" height="1630.78"/></clipPath><clipPath id="clip-path-2"><ellipse class="cls-2" cx="2866.38" cy="848.13" rx="238.55" ry="237.93" transform="translate(-4.16 14.17) rotate(-0.28)"/></clipPath><clipPath id="clip-path-3"><ellipse class="cls-2" cx="3012.12" cy="578.28" rx="354.84" ry="353.92"/></clipPath><clipPath id="clip-path-4"><ellipse class="cls-2" cx="2931.72" cy="1408.38" rx="280.18" ry="279.45"/></clipPath><clipPath id="clip-path-5"><ellipse class="cls-2" cx="3105.61" cy="1855.29" rx="88.63" ry="88.4"/></clipPath><clipPath id="clip-path-6"><ellipse class="cls-2" cx="3073.54" cy="1434.49" rx="56.65" ry="56.51"/></clipPath><clipPath id="clip-path-7"><ellipse class="cls-2" cx="3612.96" cy="854.85" rx="103.76" ry="103.49"/></clipPath><clipPath id="clip-path-8"><ellipse class="cls-2" cx="3650.68" cy="1225.9" rx="168.63" ry="168.19"/></clipPath></defs><title>Infographic</title><g class="cls-3"><g class="cls-4"><ellipse class="cls-2" cx="2866.38" cy="848.13" rx="238.55" ry="237.93" transform="translate(-4.16 14.17) rotate(-0.28)"/><g class="cls-5"><rect class="cls-2" x="-3956.03" y="-1321.65" width="12079.34" height="8589.75" transform="translate(-14.66 10.33) rotate(-0.28)"/></g></g><ellipse class="cls-2" cx="3012.12" cy="578.28" rx="354.84" ry="353.92"/><g class="cls-6"><rect class="cls-2" x="-4068.27" y="-1877.93" width="12079.34" height="8589.75"/></g><g class="cls-7"><ellipse class="cls-2" cx="2931.72" cy="1408.38" rx="280.18" ry="279.45"/><g class="cls-8"><rect class="cls-2" x="-3396.65" y="-829.71" width="11581.64" height="8235.84"/></g></g><ellipse class="cls-2" cx="3105.61" cy="1855.29" rx="88.63" ry="88.4"/><g class="cls-9"><rect class="cls-2" x="-4532.94" y="-223.51" width="14362.24" height="10213.15"/></g><g class="cls-10"><ellipse class="cls-2" cx="3073.54" cy="1434.49" rx="56.65" ry="56.51"/><g class="cls-11"><rect class="cls-2" x="-4418.35" y="-123.55" width="12079.34" height="8589.75"/></g></g><g class="cls-7"><ellipse class="cls-2" cx="3612.96" cy="854.85" rx="103.76" ry="103.49"/><g class="cls-12"><rect class="cls-2" x="-10107.9" y="-1998.58" width="22122.45" height="15731.52"/></g></g><g class="cls-10"><ellipse class="cls-2" cx="3650.68" cy="1225.9" rx="168.63" ry="168.19"/><g class="cls-13"><rect class="cls-2" x="-18648.55" y="-3411.52" width="35953.57" height="25566.98"/></g></g></g><g id="cart"><path class="cls-14" d="M24.91,7.21A.5.5,0,0,0,24.5,7H6.81L5.49,1.39A.5.5,0,0,0,5,1H1.5a.5.5,0,1,0,0,1H4.6L8.39,18.1a2,2,0,1,0,2.33.9H13a.5.5,0,1,0,0-1H9.4l-.47-2h4a.5.5,0,0,0,0-1H8.69L7,8H23.81l-1.3,3.89a.5.5,0,0,0,.32.63l.16,0a.5.5,0,0,0,.47-.34L25,7.66A.5.5,0,0,0,24.91,7.21ZM19.5,25A5.45,5.45,0,1,1,25,19.5,5.46,5.46,0,0,1,19.5,25Zm0-10A4.55,4.55,0,1,0,24,19.5,4.55,4.55,0,0,0,19.5,15Zm3,4.55a.5.5,0,0,1-.5.5H20v2a.5.5,0,0,1-1,0V20H17a.5.5,0,0,1,0-1h2V17a.5.5,0,0,1,1,0v2h2A.5.5,0,0,1,22.5,19.5Z"/></g></svg>